<?xml version="1.0" standalone="no"?>
<!DOCTYPE svg PUBLIC "-//W3C//DTD SVG 20010904//EN"
 "http://www.w3.org/TR/2001/REC-SVG-20010904/DTD/svg10.dtd">
<svg version="1.0" xmlns="http://www.w3.org/2000/svg"
 width="500.000000pt" height="150.000000pt" viewBox="0 0 500.000000 150.000000"
 preserveAspectRatio="xMidYMid meet">

<g transform="translate(0.000000,150.000000) scale(0.100000,-0.100000)"
fill="#000000" stroke="none">
<path d="M1285 1210 c-132 -17 -265 -52 -277 -73 -14 -27 -5 -100 17 -133 13
-21 22 -25 44 -21 l28 6 6 -259 c3 -151 10 -267 16 -278 14 -27 76 -37 125
-20 66 22 65 10 30 301 -4 30 -2 53 5 60 7 7 11 55 11 123 0 128 -3 124 90
124 80 0 115 -28 115 -93 0 -35 -6 -52 -25 -72 -27 -29 -98 -68 -142 -79 -18
-4 -30 -15 -34 -32 -7 -28 19 -106 41 -124 20 -17 68 -6 150 34 172 83 243
247 173 397 -55 119 -175 164 -373 139z"/>
<path d="M2775 1210 c-132 -17 -265 -52 -277 -73 -14 -27 -5 -100 17 -133 13
-21 22 -25 44 -21 l28 6 6 -259 c3 -151 10 -267 16 -278 14 -27 76 -37 125
-20 66 22 65 10 30 301 -4 30 -2 53 5 60 7 7 11 55 11 123 0 128 -3 124 90
124 80 0 115 -28 115 -93 0 -35 -6 -52 -25 -72 -27 -29 -98 -68 -142 -79 -18
-4 -30 -15 -34 -32 -7 -28 19 -106 41 -124 20 -17 68 -6 150 34 172 83 243
247 173 397 -55 119 -175 164 -373 139z"/>
<path d="M2050 1194 c-204 -55 -346 -273 -312 -478 21 -131 84 -227 174 -266
141 -60 306 -23 425 96 75 75 115 163 121 267 6 105 -10 173 -60 247 -48 72
-106 114 -184 135 -70 18 -93 18 -164 -1z m150 -181 c16 -9 40 -38 54 -64 81
-148 -30 -339 -197 -339 -93 0 -137 55 -137 169 0 96 39 168 118 221 53 35
117 40 162 13z"/>
<path d="M3540 1194 c-204 -55 -346 -273 -312 -478 21 -131 84 -227 174 -266
141 -60 306 -23 425 96 75 75 115 163 121 267 6 105 -10 173 -60 247 -48 72
-106 114 -184 135 -70 18 -93 18 -164 -1z m150 -181 c16 -9 40 -38 54 -64 81
-148 -30 -339 -197 -339 -93 0 -137 55 -137 169 0 96 39 168 118 221 53 35
117 40 162 13z"/>
</g>
</svg>
